# xmcd CD database file
#
# Track frame offsets:
#	150
#	56668
#	144406
#
# Disc length: 2738 seconds
#
# Revision: 0
# Processed by: cddbd v1.5PL3 Copyright (c) Steve Scherf et al.
# Submitted via: CDex 1.51
#
DISCID=240ab003
DTITLE=Mahavishnu Orchestra - Live At Budokan 1973
DYEAR=1973
DGENRE=Jazz
TTITLE0=Bird Of Fire
TTITLE1=Trilogy
TTITLE2=Sister Andrea
EXTD=YEAR: 1973
EXTT0=
EXTT1=
EXTT2=
PLAYORDER=
